<?xml version="1.0" standalone="no"?>
<!DOCTYPE svg PUBLIC "-//W3C//DTD SVG 1.1//EN" "http://www.w3.org/Graphics/SVG/1.1/DTD/svg11.dtd">
<svg xmlns="http://www.w3.org/2000/svg">
<defs >
<font id="Prata" horiz-adv-x="636" ><font-face
    font-family="Prata"
    units-per-em="1000"
    panose-1="0 0 5 0 0 0 0 0 0 0"
    ascent="993"
    descent="-362"
    alphabetic="0" />
<glyph unicode=" " glyph-name="space" horiz-adv-x="239" />
<glyph unicode="!" glyph-name="exclam" horiz-adv-x="262" d="M118 265T111 358T91 559Q85 616 81 668T76 752Q76 775 91 792T131 810Q156 810 171 793T186 752Q186 720 182 667T171 556Q159 435 152 349T143 165H119Q118 265 111 358ZM106 -10T89 7T72 50Q72
75 89 91T131 108Q156 108 173 92T190 50Q190 25 173 8T131 -10Q106 -10 89 7Z" />
<glyph unicode="&quot;" glyph-name="quotedbl" horiz-adv-x="276" d="M68 633T54 707Q45 752 45 770Q45 786 55 798T83 810Q100 810 110 798T120 770Q120 752 111 707Q97 633 91 565H74Q68 633 54 707ZM179 640T165 708Q156 753 156 770Q156 786 166 798T194
810Q212 810 221 798T231 770Q231 752 222 707Q208 633 202 565H186Q179 640 165 708Z" />
<glyph unicode="#" glyph-name="numbersign" horiz-adv-x="585" d="M102 0L141 210H38V255H150L174 383H71V428H182L236 715H282L227 428H382L436 715H482L427 428H543V383H419L395 255H510V210H386L347 0H302L341 210H186L147 0H102ZM195 255H350L374 383H219L195 255Z" />
<glyph unicode="$" glyph-name="dollar" horiz-adv-x="653" d="M609 116T552 55T397 -18V-104H372V-20H357Q327 -20 297 -14V-104H272V-8Q222 5 174 33L89 -10H67V247H89L175 61Q217 30 272 14V368L245 375Q158 398 114 453T70 585Q70 682 123 745T272 818V896H297V820H304Q344
820 372 815V896H397V811Q434 803 467 789L540 820H562V616H540L468 762Q430 780 397 787V466L437 455Q524 433 566 380T609 217Q609 116 552 55ZM297 798V492L372 472V792Q339 798 305 798H297ZM272 498V796Q199 788 159 745T118 636Q118 582 153 551T258 502L272
498ZM372 2V342L297 362V8Q330 2 365 2H372ZM473 12T520 57T568 179Q568 240 531 275T411 332L397 336V4Q473 12 520 57Z" />
<glyph unicode="%" glyph-name="percent" horiz-adv-x="829" d="M125 370T82 426T38 588Q38 693 81 749T196 805Q268 805 311 749T355 588Q355 483 312 427T196 370Q125 370 82 426ZM189 0L589 800H640L241 0H189ZM236 392T256 426T277 537V639Q277 716 257 750T196
784Q157 784 136 750T115 639V537Q115 460 136 426T196 392Q236 392 256 426ZM561 -5T518 51T474 213Q474 318 517 374T633 430Q704 430 747 374T791 213Q791 108 748 52T633 -5Q561 -5 518 51ZM672 17T693 51T714 162V264Q714 341 693 375T633 409Q593 409 573
375T552 264V162Q552 85 572 51T633 17Q672 17 693 51Z" />
<glyph unicode="&amp;" glyph-name="ampersand" horiz-adv-x="821" d="M213 -20T134 44T54 218Q54 323 130 380T331 444V447Q207 463 148 506T88 645Q88 729 155 774T344 820Q425 820 479 781T534 677Q534 644 516 626T473 607Q448 607 431 622T414 666Q456 685
456 729Q456 760 429 778T355 797Q287 797 247 757T206 650Q206 554 262 509T428 457V435Q310 428 251 373T191 218Q191 151 216 103T285 29T383 3Q464 3 515 52T566 195Q566 232 555 274L516 280Q471 289 445 289Q402 289 374 276T345 234Q345 220 354 213T377
206Q390 206 403 213T422 233Q446 227 458 213T471 178Q471 154 454 136T410 118Q372 118 347 151T322 232Q322 271 341 304T396 356T482 376Q530 376 594 366Q644 357 678 357Q725 357 753 371T782 412Q782 426 774 433T751 441Q737 441 725 434T706 413Q681 419
669 433T657 468Q657 492 674 510T718 528Q756 528 779 499T803 423Q803 266 653 266Q610 266 582 270Q590 230 590 197Q590 94 532 37T375 -20Q213 -20 134 44Z" />
<glyph unicode="&apos;" glyph-name="quotesingle" horiz-adv-x="166" d="M69 633T55 707Q46 752 46 770Q46 786 55 798T83 810Q101 810 111 798T121 770Q121 752 112 709Q111 703 104 664T92 565H75Q69 633 55 707Z" />
<glyph unicode="(" glyph-name="parenleft" horiz-adv-x="346" d="M252 -168T183 -92T77 99T39 356Q39 499 76 613T182 804T345 907L352 884Q263 852 211 724T159 356Q159 200 188 89T262 -85T352 -171L346 -195Q252 -168 183 -92Z" />
<glyph unicode=")" glyph-name="parenright" horiz-adv-x="346" d="M-6 -171Q40 -148 84 -86T157 88T187 356Q187 596 135 724T-6 884L1 907Q95 880 164 804T270 614T307 356Q307 214 270 99T163 -92T0 -195L-6 -171Z" />
<glyph unicode="*" glyph-name="asterisk" horiz-adv-x="456" d="M217 374T210 381T202 401Q202 407 205 429T211 467Q222 546 222 552Q213 547 157 502Q105 461 102 459Q95 455 87 455Q75 455 68 462T60 482Q60 497 75 505Q83 510 145 535Q204 558 215 564Q209
568 184 578T145 593Q83 617 74 622Q59 630 59 646Q59 657 67 664T86 672Q94 672 101 668Q110 663 162 621Q214 580 222 575Q222 593 211 653Q201 717 201 727Q201 739 208 747T228 755Q240 755 247 747T255 727Q255 717 245 653Q235 587 235 575Q248 582 292 619Q302
627 325 645T357 668Q365 673 372 673Q385 673 394 659Q398 651 398 646Q398 630 383 622Q377 618 313 593Q302 589 276 579T242 564Q248 560 312 535Q372 512 382 505Q397 497 397 482Q397 475 393 468Q386 455 371 455Q363 455 356 459Q349 463 299 503Q244 548
235 552Q235 536 246 477Q256 411 256 401Q256 389 249 381T229 373Q217 374 210 381Z" />
<glyph unicode="+" glyph-name="plus" horiz-adv-x="529" d="M245 127V338H35V376H245V586H283V376H494V338H283V127H245Z" />
<glyph unicode="," glyph-name="comma" horiz-adv-x="232" d="M51 -146Q81 -128 105 -96T130 -30Q130 -21 125 -16T110 -10Q85 -10 68 7T50 50Q50 75 67 91T110 108Q145 108 165 83T186 16Q186 -40 156 -85T62 -162L51 -146Z" />
<glyph unicode="-" glyph-name="hyphen" horiz-adv-x="349" d="M65 257V290H284V257H65Z" />
<glyph unicode="." glyph-name="period" horiz-adv-x="219" d="M85 -10T68 7T50 50Q50 75 67 91T110 108Q135 108 152 92T169 50Q169 25 152 8T110 -10Q85 -10 68 7Z" />
<glyph unicode="/" glyph-name="slash" horiz-adv-x="440" d="M34 0L345 700H396L86 0H34Z" />
<glyph unicode="0" glyph-name="zero" horiz-adv-x="696" d="M261 -20T196 27T95 168T59 400Q59 537 95 631T196 773T348 820Q435 820 500 773T601 632T637 400Q637 263 601 169T500 27T348 -20Q261 -20 196 27ZM423 3T466 76T509 304V497Q509 651 466 724T348
797Q273 797 230 724T187 497V304Q187 150 230 77T348 3Q423 3 466 76Z" />
<glyph unicode="1" glyph-name="one" horiz-adv-x="345" d="M55 0V20L125 30V770L55 780V800H225V30L295 20V0H55Z" />
<glyph unicode="2" glyph-name="two" horiz-adv-x="613" d="M38 77L249 292Q332 378 375 459T419 628Q419 716 382 756T280 797Q230 797 193 770T156 699Q156 646 209 620Q209 584 187 565T135 546Q103 546 80 569T57 634Q57 688 90 730T178 796T296 820Q418 820
477 763T536 611Q536 554 513 507T457 424T368 340L340 316L101 105H474L515 253H541V0H38V77Z" />
<glyph unicode="3" glyph-name="three" horiz-adv-x="620" d="M205 -20T154 4T72 69T42 161Q42 202 65 225T120 249Q150 249 172 230T194 175Q141 149 141 95Q141 54 175 29T267 3Q339 3 384 57T429 208Q429 313 369 370T192 435V457Q297 463 355 513T414 650Q414
717 378 757T280 797Q225 797 194 779T162 727Q162 674 212 651Q212 617 192 599T142 580Q112 580 90 603T68 664Q68 709 99 744T181 800T291 820Q405 820 469 774T533 645Q533 558 471 511T289 447V444Q414 438 490 378T567 208Q567 147 534 95T433 12T267 -20Q205
-20 154 4Z" />
<glyph unicode="4" glyph-name="four" horiz-adv-x="585" d="M245 0V21L337 36V192H0V213L424 800H447V239H539V192H447V36L539 21V0H245ZM49 239H337V638L49 239Z" />
<glyph unicode="5" glyph-name="five" horiz-adv-x="606" d="M189 -20T138 4T56 69T26 161Q26 202 49 225T104 249Q134 249 156 230T178 175Q125 149 125 95Q125 54 159 29T251 3Q326 3 369 67T413 233Q413 351 362 410T225 470Q180 470 127 453L109 466L153 800H418Q478
800 505 809T543 854L566 853Q558 756 518 720T403 683H164L138 484Q188 498 243 498Q332 498 402 463T512 367T551 232Q551 169 519 112T420 17T251 -20Q189 -20 138 4Z" />
<glyph unicode="6" glyph-name="six" horiz-adv-x="649" d="M182 -20T121 93T60 410Q60 612 138 716T355 820Q417 820 466 803T544 754T573 685Q573 651 552 628T498 604Q471 604 453 619T435 660Q450 672 456 684T463 713Q463 750 433 775T355 800Q278 800 232
738T184 535L183 423Q213 459 256 478T346 498Q420 498 477 468T566 381T598 244Q598 162 562 103T464 12T329 -20Q182 -20 121 93ZM401 2T439 53T478 194V292Q478 379 444 426T339 474Q290 474 248 448T183 375L182 236Q181 123 217 63T329 2Q401 2 439 53Z" />
<glyph unicode="7" glyph-name="seven" horiz-adv-x="500" d="M148 74T169 140T218 260T291 394Q344 487 376 552T430 696H95L68 577H42V800H481Q469 697 444 607T376 388Q333 265 310 180T278 0H141Q148 74 169 140Z" />
<glyph unicode="8" glyph-name="eight" horiz-adv-x="648" d="M198 -20T126 34T54 188Q54 278 105 333T240 431L194 461Q142 497 114 539T85 629Q85 687 118 730T208 796T329 820Q385 820 436 801T520 744T553 652Q553 604 533 569T483 509T408 458L434 442Q511
393 554 342T598 214Q598 139 559 86T458 7T327 -20Q198 -20 126 34ZM428 510T445 554T462 649Q462 715 422 756T317 797Q280 797 247 783T194 742T174 683Q174 641 199 608T274 542L380 475Q428 510 445 554ZM376 3T417 24T481 80T503 155Q503 207 473 252T378
342L269 412Q213 371 185 310T156 182Q156 105 196 54T322 3Q376 3 417 24Z" />
<glyph unicode="9" glyph-name="nine" horiz-adv-x="649" d="M232 -20T183 -3T105 46T76 115Q76 149 97 172T151 196Q178 196 196 181T214 140Q199 128 193 116T186 87Q186 50 216 25T294 0Q371 0 417 62T465 265V377Q436 341 394 322T303 302Q229 302 172 332T83
419T51 556Q51 638 87 697T185 788T320 820Q467 820 528 707T589 390Q589 188 511 84T294 -20Q232 -20 183 -3ZM358 326T400 352T466 425L467 564Q468 677 432 737T320 798Q248 798 210 747T171 606V508Q171 421 205 374T310 326Q358 326 400 352Z" />
<glyph unicode=":" glyph-name="colon" horiz-adv-x="249" d="M100 341T83 358T65 401Q65 426 82 442T125 459Q150 459 167 443T184 401Q184 376 167 359T125 341Q100 341 83 358ZM100 -10T83 7T65 50Q65 75 82 91T125 108Q150 108 167 92T184 50Q184 25 167 8T125
-10Q100 -10 83 7Z" />
<glyph unicode=";" glyph-name="semicolon" horiz-adv-x="274" d="M106 341T89 358T71 401Q71 426 88 442T131 459Q156 459 173 443T190 401Q190 376 173 359T131 341Q106 341 89 358ZM72 -146Q102 -128 126 -96T151 -30Q151 -21 146 -16T131 -10Q106 -10 89 7T71
50Q71 75 88 91T131 108Q166 108 186 83T207 16Q207 -40 177 -85T83 -162L72 -146Z" />
<glyph unicode="&lt;" glyph-name="less" horiz-adv-x="491" d="M422 139L33 347V367L422 577V539L87 357L422 177V139Z" />
<glyph unicode="=" glyph-name="equal" horiz-adv-x="611" d="M76 421V459H535V421H76ZM76 255V293H535V255H76Z" />
<glyph unicode="&gt;" glyph-name="greater" horiz-adv-x="491" d="M69 139V177L404 357L69 539V577L458 367V347L69 139Z" />
<glyph unicode="?" glyph-name="question" horiz-adv-x="526" d="M224 240T243 295T300 420Q333 483 348 524T363 616Q363 718 334 758T253 798Q204 798 167 772T130 705Q130 653 180 629Q180 594 160 576T110 557Q80 557 58 579T35 641Q35 693 67 734T153 797T269
820Q377 820 431 775T485 623Q485 580 470 544T432 478T370 408Q328 362 304 331T263 257T246 165H224Q224 240 243 295ZM210 -10T193 7T176 50Q176 75 193 91T235 108Q260 108 277 92T294 50Q294 25 277 8T235 -10Q210 -10 193 7Z" />
<glyph unicode="@" glyph-name="at" horiz-adv-x="887" d="M351 -10T257 44T108 192T54 400Q54 514 108 608T256 756T465 810Q582 810 668 767T801 646T848 464Q848 384 818 320T736 220T619 184Q580 184 549 198T503 242Q479 217 444 201T373 185Q292 185 250
234T208 360Q208 440 245 504T342 605T465 642Q506 642 538 624T587 576L603 625H685L590 292Q584 270 584 255Q584 234 597 225T639 215Q687 215 728 249T794 341T818 464Q818 561 775 633T651 744T465 783Q359 783 272 733T134 594T83 400Q83 294 133 207T271
70T465 20Q540 20 593 35T706 83L720 57Q657 22 599 6T465 -10Q351 -10 257 44ZM454 221T498 281L576 542Q544 611 474 611Q426 611 387 569T325 460T303 326Q303 279 324 250T388 221Q454 221 498 281Z" />
<glyph unicode="A" glyph-name="A" horiz-adv-x="719" d="M-28 0V21L70 61L359 820H375L648 36L740 21V0H446V21L528 34L443 271H177L96 61L186 21V0H-28ZM185 292H436L316 644L185 292Z" />
<glyph unicode="B" glyph-name="B" horiz-adv-x="745" d="M40 21L132 36V764L40 778V800H345Q453 800 517 780T610 720T639 613Q639 469 457 429V424Q568 409 629 358T691 216Q691 106 611 53T393 0H40V21ZM353 432Q433 432 476 477T519 605V611Q519 775 345 775H242V432H353ZM393
24Q478 24 525 73T572 215V226Q572 317 526 362T393 407H242V24H393Z" />
<glyph unicode="C" glyph-name="C" horiz-adv-x="745" d="M307 -20T225 33T99 181T54 400Q54 524 99 619T228 767T421 820Q464 820 508 805T589 763L656 820H677V572H656L594 727Q559 759 513 778T421 797Q351 797 298 761T214 656T184 492V309Q184 214 213 145T294
40T416 3Q467 3 518 25T603 86L661 247H682V-10H661L589 41Q553 12 507 -4T416 -20Q307 -20 225 33Z" />
<glyph unicode="D" glyph-name="D" horiz-adv-x="854" d="M40 21L132 36V764L40 778V800H423Q533 800 618 751T752 611T800 400Q800 280 752 190T618 50T423 0H40V21ZM423 24Q496 24 552 58T641 159T673 323V477Q673 573 641 640T553 741T423 775H242V24H423Z" />
<glyph unicode="E" glyph-name="E" horiz-adv-x="721" d="M40 0V21L132 36V764L40 778V800H642V571H615L538 775H242V415H372L431 560H457V244H431L371 391H242V24H556L638 244H664V0H40Z" />
<glyph unicode="F" glyph-name="F" horiz-adv-x="672" d="M40 0V21L132 36V764L40 778V800H642V571H615L538 775H242V400H411L470 545H497V229H470L411 376H242V36L334 21V0H40Z" />
<glyph unicode="G" glyph-name="G" horiz-adv-x="813" d="M307 -20T225 33T99 181T54 400Q54 524 101 619T232 767T426 820Q529 820 600 768L661 820H682V572H661L595 737Q523 797 426 797Q356 797 301 761T214 656T182 492V309Q182 214 211 145T293 40T416 3Q502
3 549 56T597 198V291L504 305V327H803V305L710 291V198Q710 141 679 92T582 11T416 -20Q307 -20 225 33Z" />
<glyph unicode="H" glyph-name="H" horiz-adv-x="865" d="M40 0V21L132 36V764L40 778V800H334V778L242 764V436H622V764L529 778V800H825V778L732 764V36L825 21V0H529V21L622 36V411H242V36L334 21V0H40Z" />
<glyph unicode="I" glyph-name="I" horiz-adv-x="374" d="M40 0V21L132 36V764L40 778V800H334V778L242 764V36L334 21V0H40Z" />
<glyph unicode="J" glyph-name="J" horiz-adv-x="448" d="M86 -20T47 6T7 82Q7 115 25 135T74 156Q98 156 112 143T131 116T137 97Q108 76 108 48Q108 29 120 16T153 3Q185 3 203 46T222 197V764L130 778V800H420V778L328 764V197Q328 127 315 81T261 7T146 -20Q86
-20 47 6Z" />
<glyph unicode="K" glyph-name="K" horiz-adv-x="738" d="M40 0V21L132 36V764L40 778V800H334V778L242 764V404L567 736L458 778V800H689V778L607 736L380 508L700 36L768 21V0H473V21L564 35L302 430L242 369V36L334 21V0H40Z" />
<glyph unicode="L" glyph-name="L" horiz-adv-x="675" d="M40 0V21L132 36V764L40 778V800H334V778L242 764V24H541L623 244H650V0H40Z" />
<glyph unicode="M" glyph-name="M" horiz-adv-x="1012" d="M456 -10L158 764V61L254 21V0H40V21L134 61V764L42 778V800H263L514 158L770 800H972V778L880 764V36L972 21V0H678V21L770 36V734L474 -10H456Z" />
<glyph unicode="N" glyph-name="N" horiz-adv-x="814" d="M43 0V21L136 61V739L43 778V800H229L660 196V739L567 778V800H780V778L685 739V0H660L161 701V61L257 21V0H43Z" />
<glyph unicode="O" glyph-name="O" horiz-adv-x="862" d="M322 -20T236 33T102 181T54 400Q54 523 102 618T236 767T431 820Q540 820 626 767T760 619T808 400Q808 277 760 182T626 33T431 -20Q322 -20 236 33ZM503 3T560 41T651 151T684 323V477Q684 576 651
648T561 759T431 797Q358 797 301 759T211 649T178 477V323Q178 224 211 152T301 41T431 3Q503 3 560 41Z" />
<glyph unicode="P" glyph-name="P" horiz-adv-x="684" d="M40 21L132 36V764L40 778V800H354Q502 800 574 737T646 555Q646 436 574 373T354 310H242V36L334 21V0H40V21ZM340 334Q525 334 525 535V575Q525 775 340 775H242V334H340Z" />
<glyph unicode="Q" glyph-name="Q" horiz-adv-x="862" d="M371 -231T371 -58V-15Q277 -2 205 54T94 199T54 400Q54 523 102 618T236 767T431 820Q540 820 626 767T760 619T808 400Q808 289 769 200T658 55T494 -15V-82Q494 -208 616 -208V-231H583Q371 -231 371
-58ZM503 3T560 41T649 151T682 323V477Q682 577 650 649T560 759T431 797Q358 797 302 759T213 649T180 477V323Q180 223 212 151T301 41T431 3Q503 3 560 41Z" />
<glyph unicode="R" glyph-name="R" horiz-adv-x="727" d="M565 -10T537 17T499 109L480 243Q470 311 434 349T320 388H242V36L334 21V0H40V21L132 36V764L40 778V800H320Q483 800 556 749T629 594Q629 422 421 395V389Q498 378 544 334T603 217L616 131Q624 75
634 55T667 35Q682 35 699 44T731 69L748 51Q719 18 688 4T621 -10Q565 -10 537 17ZM354 412Q427 412 467 456T508 588V609Q508 775 320 775H242V412H354Z" />
<glyph unicode="S" glyph-name="S" horiz-adv-x="666" d="M264 -20T174 33L89 -10H67V247H89L175 61Q258 2 365 2Q453 2 510 48T568 179Q568 240 531 275T411 332L245 375Q158 398 114 453T70 585Q70 654 97 707T178 790T304 820Q395 820 467 789L540 820H562V616H540L468
762Q393 798 305 798Q218 798 168 754T118 636Q118 582 153 551T258 502L437 455Q524 433 566 380T609 217Q609 106 541 43T357 -20Q264 -20 174 33Z" />
<glyph unicode="T" glyph-name="T" horiz-adv-x="700" d="M203 0V21L295 36V775H130L54 577H25V800H676V577H646L571 775H405V36L497 21V0H203Z" />
<glyph unicode="U" glyph-name="U" horiz-adv-x="809" d="M255 -20T187 45T119 219V764L27 778V800H321V778L229 764V219Q229 121 284 69T451 16Q663 16 663 219V739L570 778V800H783V778L687 739V219Q687 99 620 40T402 -20Q255 -20 187 45Z" />
<glyph unicode="V" glyph-name="V" horiz-adv-x="681" d="M339 -20L51 764L-29 778V800H264V778L170 766L390 167L606 733L491 778V800H706V778L633 734L347 -20H339Z" />
<glyph unicode="W" glyph-name="W" horiz-adv-x="1081" d="M328 -20L46 764L-21 778V800H257V778L166 764L381 172L527 554L452 764L360 778V800H657V778L571 766L788 173L1003 733L890 778V800H1105V778L1029 734L743 -20H735L540 519L336 -20H328Z" />
<glyph unicode="X" glyph-name="X" horiz-adv-x="760" d="M2 0V21L101 77L330 383L77 764L-8 778V800H295V778L216 766L410 472L603 730L484 778V800H723V778L628 725L424 452L701 35L787 21V0H483V21L562 34L344 362L123 68L241 21V0H2Z" />
<glyph unicode="Y" glyph-name="Y" horiz-adv-x="657" d="M196 0V21L289 36V340L46 764L-33 778V800H268V778L175 764L385 401L578 730L458 778V800H682V778L605 729L397 373V36L490 21V0H196Z" />
<glyph unicode="Z" glyph-name="Z" horiz-adv-x="685" d="M33 0V24L501 775H191L88 575H62L86 800H636V775L167 24H517L620 239H646L622 0H33Z" />
<glyph unicode="[" glyph-name="bracketleft" horiz-adv-x="315" d="M90 -185V897H304V867H191V-155H304V-185H90Z" />
<glyph unicode="\" glyph-name="backslash" horiz-adv-x="440" d="M354 0L44 700H95L406 0H354Z" />
<glyph unicode="]" glyph-name="bracketright" horiz-adv-x="315" d="M12 -185V-155H125V867H12V897H226V-185H12Z" />
<glyph unicode="^" glyph-name="asciicircum" horiz-adv-x="580" d="M64 267L270 674H309L515 267H465L289 612L114 267H64Z" />
<glyph unicode="_" glyph-name="underscore" horiz-adv-x="459" d="M0 -113V-78H459V-113H0Z" />
<glyph unicode="`" glyph-name="grave" horiz-adv-x="224" d="M-4 687Q-21 701 -21 722Q-21 741 -7 755T26 769Q40 769 52 761T70 741L143 583L127 571L-4 687Z" />
<glyph unicode="a" glyph-name="a" horiz-adv-x="567" d="M128 -10T87 23T46 123Q46 217 125 256T308 296H375V373Q375 425 364 453T328 493T263 505Q216 505 193 487T170 437Q170 408 198 399Q198 374 179 355T134 336Q106 336 89 351T72 399Q72 457 130 492T275
527Q475 527 475 353V67Q475 45 484 34T512 22Q529 22 539 33T549 65H570Q570 30 548 10T485 -10Q439 -10 408 16T375 99Q351 48 302 19T192 -10Q128 -10 87 23ZM274 34T302 50T351 96T375 170V274H308Q226 274 186 238T145 135Q145 80 171 57T247 34Q274 34 302
50Z" />
<glyph unicode="b" glyph-name="b" horiz-adv-x="641" d="M300 -10T258 20T190 104V0H20V20L90 30V770L20 780V800H190V413Q215 466 257 496T359 527Q430 527 484 494T568 401T598 259Q598 178 568 118T484 24T359 -10Q300 -10 258 20ZM488 15T488 209V309Q488
502 349 502Q305 502 269 477T212 409T190 316V209Q190 158 210 113T267 42T349 15Q488 15 488 209Z" />
<glyph unicode="c" glyph-name="c" horiz-adv-x="547" d="M230 -10T171 23T78 118T43 259Q43 342 79 403T175 495T302 527Q359 527 406 508T480 453T508 374Q508 341 491 324T446 306Q419 306 401 324T383 369Q398 379 404 391T410 421Q410 458 381 481T302 505Q230
505 192 454T153 309V209Q153 120 190 66T302 12Q370 12 420 50T483 152H506Q492 78 437 34T302 -10Q230 -10 171 23Z" />
<glyph unicode="d" glyph-name="d" horiz-adv-x="642" d="M211 -10T157 23T73 117T43 259Q43 340 73 400T157 494T282 527Q340 527 383 497T451 413V770L381 780V800H551V30L621 20V0H451V104Q426 51 383 21T282 -10Q211 -10 157 23ZM336 15T371 40T428 108T451
201V316Q450 366 429 408T372 476T292 502Q153 502 153 309V209Q153 15 292 15Q336 15 371 40Z" />
<glyph unicode="e" glyph-name="e" horiz-adv-x="561" d="M233 -10T173 23T78 118T43 259Q43 339 77 399T170 493T301 527Q364 527 414 499T492 422T521 308H153V209Q153 121 192 67T307 12Q376 12 429 51T494 152H517Q503 78 446 34T307 -10Q233 -10 173 23ZM411
333Q411 420 384 462T300 505Q233 505 196 458T154 333H411Z" />
<glyph unicode="f" glyph-name="f" horiz-adv-x="340" d="M27 20L97 30V488L27 498V518H97V602Q97 698 136 754T269 810Q328 810 366 782T405 704Q405 674 389 655T344 636Q319 636 300 655T281 699Q315 709 315 746Q315 763 302 775T269 788Q230 788 214 752T197
633V518H327V498L197 488V30L316 20V0H27V20Z" />
<glyph unicode="g" glyph-name="g" horiz-adv-x="535" d="M540 526T511 498T419 462Q445 424 445 358Q445 280 390 235T249 190Q214 190 185 196Q121 192 121 146Q121 120 142 108T211 96H323Q404 96 443 63T483 -50Q483 -106 455 -153T372 -227T243 -255Q130
-255 77 -221T23 -131Q23 -97 49 -71T120 -45Q129 -45 157 -49Q126 -82 126 -127Q126 -170 156 -202T254 -234Q313 -234 359 -212T431 -153T456 -79Q456 -37 429 -19T333 0H211Q141 0 106 27T70 109Q70 145 90 172T143 208Q56 245 56 358Q56 437 111 482T249 527Q354
527 401 483Q429 488 443 501T457 532Q457 548 448 556T427 565Q427 587 443 603T483 620Q508 620 524 605T540 565Q540 526 511 498ZM351 383Q351 444 326 477T249 510Q150 510 150 383V334Q150 275 174 241T249 207Q300 207 325 241T351 334V383Z" />
<glyph unicode="h" glyph-name="h" horiz-adv-x="629" d="M21 20L91 30V770L21 780V800H191V410Q228 464 278 495T386 527Q458 527 499 491T541 384V30L611 20V0H381V20L441 30V382Q441 434 420 462T355 491Q309 491 267 458T191 375V30L251 20V0H21V20Z" />
<glyph unicode="i" glyph-name="i" horiz-adv-x="289" d="M106 634T86 653T66 701Q66 729 85 748T134 767Q161 767 180 748T199 701Q199 673 180 654T134 634Q106 634 86 653ZM28 0V20L98 30V487L28 497V517H198V30L268 20V0H28Z" />
<glyph unicode="j" glyph-name="j" horiz-adv-x="278" d="M107 634T87 653T67 701Q67 729 86 748T135 767Q162 767 181 748T200 701Q200 673 181 654T135 634Q107 634 87 653ZM-24 -292T-57 -267T-90 -198Q-90 -171 -75 -154T-35 -137Q-12 -137 5 -154T22 -194Q-9
-203 -9 -233Q-9 -247 2 -258T32 -270Q68 -270 82 -236T97 -115V488L22 498V518H197V-104Q197 -191 160 -241T32 -292Q-24 -292 -57 -267Z" />
<glyph unicode="k" glyph-name="k" horiz-adv-x="565" d="M20 0V20L90 30V770L20 780V800H190V287L419 475L332 498V518H520V498L456 475L290 339L524 29L578 20V0H344V20L404 30L216 278L190 256V30L250 20V0H20Z" />
<glyph unicode="l" glyph-name="l" horiz-adv-x="286" d="M20 0V20L95 30V770L20 780V800H195V30L265 20V0H20Z" />
<glyph unicode="m" glyph-name="m" horiz-adv-x="946" d="M27 20L97 30V488L27 498V518H197V426Q233 473 278 500T377 527Q438 527 476 501T525 421Q561 470 607 498T708 527Q779 527 818 492T858 384V30L928 20V0H698V20L758 30V382Q758 435 739 463T677 491Q636
491 598 463T528 391V30L588 20V0H367V20L427 30V382Q427 435 408 463T346 491Q305 491 267 463T197 391V30L257 20V0H27V20Z" />
<glyph unicode="n" glyph-name="n" horiz-adv-x="635" d="M27 20L97 30V488L27 498V518H197V410Q234 464 284 495T392 527Q464 527 505 491T547 384V30L617 20V0H387V20L447 30V382Q447 434 426 462T361 491Q315 491 273 458T197 375V30L257 20V0H27V20Z" />
<glyph unicode="o" glyph-name="o" horiz-adv-x="604" d="M230 -10T171 23T78 118T43 259Q43 338 77 399T171 493T302 527Q374 527 433 494T526 399T561 259Q561 180 527 119T433 24T302 -10Q230 -10 171 23ZM376 12T413 66T451 209V309Q451 398 414 451T302 505Q228
505 191 452T153 309V209Q153 120 190 66T302 12Q376 12 413 66Z" />
<glyph unicode="p" glyph-name="p" horiz-adv-x="642" d="M21 -263L91 -253V487L21 497V517H191V412Q216 466 258 496T360 527Q431 527 485 494T569 400T599 258Q599 177 569 117T485 23T360 -10Q301 -10 259 20T191 104V-253L285 -263V-283H21V-263ZM489 15T489
208V308Q489 502 350 502Q306 502 270 477T213 408T191 315V208Q191 157 211 113T268 42T350 15Q489 15 489 208Z" />
<glyph unicode="q" glyph-name="q" horiz-adv-x="642" d="M332 -263L451 -253V104Q426 51 383 21T282 -10Q211 -10 157 23T73 116T43 258Q43 339 73 399T157 493T282 527Q340 527 383 497T451 412V517H621V497L551 487V-253L621 -263V-283H332V-263ZM336 15T371
40T428 108T451 200V315Q450 365 429 408T372 476T292 502Q153 502 153 308V208Q153 15 292 15Q336 15 371 40Z" />
<glyph unicode="r" glyph-name="r" horiz-adv-x="442" d="M27 20L97 30V488L27 498V518H197V441Q260 527 339 527Q377 527 406 508T435 452Q435 426 418 409T373 391Q341 391 321 416Q332 430 332 446Q332 463 321 473T290 484Q269 484 247 465T197 404V30L277
20V0H27V20Z" />
<glyph unicode="s" glyph-name="s" horiz-adv-x="476" d="M158 -10T103 25T48 116Q48 145 63 161T105 178Q125 178 139 168T159 140Q137 116 137 89Q137 58 165 35T240 12Q303 12 343 40T383 117Q383 145 366 159T300 191L149 246Q60 278 60 365Q60 436 109 481T244
527Q315 527 365 495T416 402Q416 378 403 364T369 349Q348 349 335 360T321 392Q334 402 339 413T344 441Q344 469 320 487T244 505Q200 505 169 492T121 456T105 411Q105 387 122 373T187 342L327 292Q376 274 401 242T426 159Q426 86 380 38T240 -10Q158 -10
103 25Z" />
<glyph unicode="t" glyph-name="t" horiz-adv-x="347" d="M168 -10T129 23T89 128V488L18 498V518H89V601L189 626V518H319V498L189 488V130Q189 24 265 24Q281 24 295 29T318 39T329 46L342 30Q297 -10 234 -10Q168 -10 129 23Z" />
<glyph unicode="u" glyph-name="u" horiz-adv-x="632" d="M170 -10T129 26T87 133V488L17 498V518H187V135Q187 84 208 55T273 26Q319 26 361 56T437 132V488L367 498V518H537V30L607 20V0H437V96Q401 46 351 18T242 -10Q170 -10 129 26Z" />
<glyph unicode="v" glyph-name="v" horiz-adv-x="530" d="M265 -20L51 488L-14 498V518H235V498L163 485L314 109L449 472L361 497V517H540V497L477 473L293 -20H265Z" />
<glyph unicode="w" glyph-name="w" horiz-adv-x="822" d="M265 -20L51 488L-14 498V518H210V498L163 485L314 109L403 352L344 488L292 498V518H528V498L456 485L607 109L742 471L658 497V517H832V497L770 473L586 -20H558L417 318L293 -20H265Z" />
<glyph unicode="x" glyph-name="x" horiz-adv-x="577" d="M516 29L580 20V0H336V20L396 30L258 219L111 43L192 20V0H13V20L80 45L242 242L62 489L1 498V518H245V498L182 487L307 316L441 474L362 497V517H546V497L473 471L323 293L516 29Z" />
<glyph unicode="y" glyph-name="y" horiz-adv-x="535" d="M66 -292T34 -266T2 -196Q2 -166 19 -148T63 -129Q82 -129 97 -137T121 -161Q106 -182 106 -205Q106 -225 119 -238T152 -251Q176 -251 193 -235T225 -179L285 -7L53 487L-14 497V517H235V497L165 485L332
128L451 472L365 497V517H545V497L477 472L253 -179Q232 -238 203 -265T118 -292Q66 -292 34 -266Z" />
<glyph unicode="z" glyph-name="z" horiz-adv-x="517" d="M39 0V24L349 493H151L69 338H44L57 518H466V493L156 24H370L458 191H484L465 0H39Z" />
<glyph unicode="{" glyph-name="braceleft" horiz-adv-x="315" d="M202 -194T156 -160T110 -46Q110 -5 121 79Q131 167 131 196Q131 263 104 305T13 348V365Q77 365 104 407T131 517Q131 546 121 634Q110 718 110 760Q110 839 156 873T291 907V889Q245 889 226
864T207 777Q207 749 217 651Q219 632 222 591T226 531Q226 462 188 417T80 356Q150 342 188 297T226 182Q226 162 222 121T217 62Q207 -36 207 -63Q207 -124 226 -149T291 -175V-194Q202 -194 156 -160Z" />
<glyph unicode="|" glyph-name="bar" horiz-adv-x="219" d="M92 -240V760H127V-240H92Z" />
<glyph unicode="}" glyph-name="braceright" horiz-adv-x="315" d="M24 -175Q70 -175 89 -150T108 -63Q108 -36 98 62Q97 79 93 120T89 182Q89 251 127 296T235 356Q165 371 127 416T89 531Q89 550 92 591T98 651Q108 749 108 777Q108 838 89 863T24 889V907Q113
907 159 873T205 760Q205 718 194 634Q184 546 184 517Q184 450 211 408T302 365V348Q238 348 211 306T184 196Q184 167 194 79Q205 -5 205 -46Q205 -125 159 -159T24 -194V-175Z" />
<glyph unicode="~" glyph-name="asciitilde" horiz-adv-x="535" d="M334 176T311 192T255 243Q229 271 211 285T170 299Q145 299 127 277T98 230T87 201L49 212Q49 217 63 249T105 309T170 337Q203 337 227 320T283 270Q309 242 327 228T366 214Q391 214 410 236T440
283T451 313L487 302Q487 297 473 265T431 204T366 176Q334 176 311 192Z" />
<glyph unicode="&#xa0;" glyph-name="uni00A0" horiz-adv-x="239" />
<glyph unicode="&#xa1;" glyph-name="exclamdown" horiz-adv-x="231" d="M142 528T159 511T176 468Q176 443 159 427T117 410Q92 410 75 426T58 468Q58 493 75 510T117 528Q142 528 159 511ZM129 353Q131 256 138 170T157 -38Q163 -96 167 -149T172 -234Q172 -257
157 -274T117 -292Q92 -292 77 -275T62 -234Q62 -202 66 -150T77 -41Q89 67 96 160T105 353H129Z" />
<glyph unicode="&#xa2;" glyph-name="cent" horiz-adv-x="545" d="M375 14T423 52T483 152H506Q492 79 439 36T309 -10V-143H284V-9Q216 -5 161 29T75 123T43 259Q43 338 76 397T165 489T284 526V662H309V527Q365 526 410 506T482 451T508 374Q508 341 491 324T446
306Q419 306 401 324T383 369Q398 379 404 391T410 421Q410 457 383 480T309 505V12Q375 14 423 52ZM153 126T186 73T284 13V504Q221 497 187 447T153 309V209Q153 126 186 73Z" />
<glyph unicode="&#xa3;" glyph-name="sterling" horiz-adv-x="638" d="M544 273H571V0H68V77Q68 74 105 108T174 193T214 305H68V330H215Q215 368 198 405H68V430H185Q173 448 149 478Q113 522 95 557T77 644Q77 691 104 731T188 795T328 820Q392 820 448 797T538
731T572 634Q572 593 549 570T494 546Q464 546 443 565T421 620Q473 645 473 699Q473 743 435 770T345 797Q282 797 244 761T205 661Q205 618 214 585T242 503Q260 460 268 430H424V405H273Q277 375 277 356Q277 338 276 330H424V305H272Q261 248 232 205T170 136T138
112H483L544 273Z" />
<glyph unicode="&#xa4;" glyph-name="currency" horiz-adv-x="547" d="M60 172L135 248Q96 295 96 359Q96 420 136 470L61 544L88 572L163 497Q210 535 274 535Q334 535 383 496L460 573L487 545L411 469Q430 446 440 418T451 359Q451 298 411 248L487 173L460
146L384 221Q336 182 274 182Q211 182 162 220L87 145L60 172ZM311 220T343 238T394 289T413 359Q413 396 394 428T343 478T274 497Q236 497 204 479T154 428T135 359Q135 321 153 289T204 239T274 220Q311 220 343 238Z" />
<glyph unicode="&#xa5;" glyph-name="yen" horiz-adv-x="676" d="M458 800H682V778L605 729L398 374H563V349H397V274H563V249H397V36L490 21V0H196V21L289 36V249H127V274H289V340L284 349H127V374H270L46 764L-33 778V800H268V778L175 764L385 401L578 730L458
778V800Z" />
<glyph unicode="&#xa6;" glyph-name="brokenbar" horiz-adv-x="230" d="M95 360V760H135V360H95ZM95 -240V160H135V-240H95Z" />
<glyph unicode="&#xa7;" glyph-name="section" horiz-adv-x="529" d="M183 -137T129 -106T75 -23Q75 6 93 25T138 45Q162 45 177 32T192 -2Q179 -12 174 -22T168 -46Q168 -77 199 -97T276 -117Q333 -117 374 -92T415 -19Q415 25 393 50T326 101L156 183Q56 235
56 328Q56 388 78 428T142 503Q109 529 90 567T71 648Q71 727 118 768T247 810Q340 810 393 778T447 695Q447 666 429 647T384 627Q361 627 346 640T330 675Q343 684 348 694T354 718Q354 749 324 769T247 790Q191 790 152 765T112 691Q112 647 133 622T196 572L367
490Q476 437 476 344Q476 286 454 243T389 163Q420 137 438 101T457 24Q457 -54 409 -95T276 -137Q183 -137 129 -106ZM405 205T421 235T438 301Q438 335 410 360T318 415L160 491Q126 460 110 433T94 372Q94 338 120 313T204 257L364 181Q366 179 368 178T372
176Q405 205 421 235Z" />
<glyph unicode="&#xa8;" glyph-name="dieresis" horiz-adv-x="395" d="M80 615T63 632T45 674Q45 699 62 716T105 733Q130 733 147 716T164 674Q164 649 147 632T105 615Q80 615 63 632ZM265 615T248 632T231 674Q231 699 248 716T290 733Q315 733 332 716T349
674Q349 649 332 632T290 615Q265 615 248 632Z" />
<glyph unicode="&#xa9;" glyph-name="copyright" horiz-adv-x="922" d="M350 -10T256 45T106 194T51 399Q51 510 106 604T256 754T461 810Q572 810 666 755T815 605T871 399Q871 288 816 194T667 45T461 -10Q350 -10 256 45ZM563 27T648 76T782 211T832 399Q832
501 783 586T648 721T461 771Q359 771 274 722T139 587T89 399Q89 297 138 212T273 77T461 27Q563 27 648 76ZM392 138T338 171T255 263T225 400Q225 477 254 536T338 629T462 662Q518 662 569 625L612 662H631V504H612L573 588Q551 610 522 621T462 633Q394 633
358 590T321 458V341Q321 253 357 210T462 167Q494 167 527 182T582 221L618 309H637V144H618L572 177Q549 159 520 149T462 138Q392 138 338 171Z" />
<glyph unicode="&#xaa;" glyph-name="ordfeminine" horiz-adv-x="502" d="M112 371T78 398T43 478Q43 555 113 589T284 624H309V696Q309 741 291 759T231 777Q198 777 177 765T156 732Q156 707 181 698Q181 676 164 659T123 642Q100 642 85 658T69 698Q69 748
116 776T231 805Q308 805 353 776T399 680V433Q399 407 425 407Q435 407 442 413T449 432H476Q476 403 455 387T399 371Q369 371 345 387T312 436Q290 405 253 388T168 371Q112 371 78 398ZM241 409T272 438T309 517V595H284Q223 595 182 564T140 478Q140 445 156
427T202 409Q241 409 272 438Z" />
<glyph unicode="&#xab;" glyph-name="guillemotleft" horiz-adv-x="370" d="M220 70L47 261V279L220 470L229 460L135 270L229 79L220 70ZM306 145L195 263V277L306 395L315 386L271 270L315 153L306 145Z" />
<glyph unicode="&#xac;" glyph-name="logicalnot" horiz-adv-x="568" d="M454 123V340H76V375H490V123H454Z" />
<glyph unicode="&#xad;" glyph-name="uni00AD" horiz-adv-x="390" d="M65 339V375H325V339H65Z" />
<glyph unicode="&#xae;" glyph-name="registered" horiz-adv-x="922" d="M350 -10T256 45T106 194T51 399Q51 510 106 604T256 754T461 810Q572 810 666 755T815 605T871 399Q871 288 816 194T667 45T461 -10Q350 -10 256 45ZM563 27T648 76T782 211T832 399Q832
501 783 586T648 721T461 771Q359 771 274 722T139 587T89 399Q89 297 138 212T273 77T461 27Q563 27 648 76ZM589 136T568 154T540 212L527 298Q521 340 500 362T428 385H388V175L447 166V142H246V166L306 175V621L246 630V654H465Q571 654 617 622T664 522Q664
412 503 395V391Q606 377 622 277L631 222Q634 197 639 186T657 175Q676 175 697 194L714 175Q678 136 626 136Q589 136 568 154ZM450 411Q573 411 573 519V532Q573 628 450 628H388V411H450Z" />
<glyph unicode="&#xaf;" glyph-name="overscore" horiz-adv-x="459" d="M0 666V700H459V666H0Z" />
<glyph unicode="&#xb0;" glyph-name="degree" horiz-adv-x="371" d="M146 462T113 482T59 535T39 609Q39 649 59 682T112 735T186 755Q226 755 259 736T312 683T332 609Q332 569 313 536T260 482T186 462Q146 462 113 482ZM230 501T262 533T294 609Q294 653 262
685T186 717Q142 717 110 685T78 609Q78 565 110 533T186 501Q230 501 262 533Z" />
<glyph unicode="&#xb1;" glyph-name="plusminus" horiz-adv-x="615" d="M288 177V338H78V376H288V537H326V376H537V338H326V177H288ZM78 112V150H537V112H78Z" />
<glyph unicode="&#xb2;" glyph-name="uni00B2" horiz-adv-x="393" d="M54 420L170 533Q252 613 252 699Q252 738 233 760T183 783Q157 783 139 771T121 737Q121 722 128 713T152 695Q152 674 140 663T108 651Q90 651 76 665T62 703Q62 752 97 778T187 805Q257
805 293 775T329 695Q329 650 304 614T231 541L111 444H277L305 523H328V380H54V420Z" />
<glyph unicode="&#xb3;" glyph-name="uni00B3" horiz-adv-x="373" d="M115 371T79 398T43 469Q43 492 56 505T87 519Q104 519 116 508T129 477Q114 469 107 459T99 437Q99 393 166 393Q200 393 223 418T247 492Q247 546 221 572T133 602V623Q187 626 208 648T230
715Q230 747 214 765T167 783Q141 783 129 773T117 746Q117 733 124 725T146 711Q146 691 134 680T105 669Q87 669 75 682T62 719Q62 762 95 783T177 805Q237 805 271 782T305 712Q305 672 275 646T185 613V611Q332 602 332 492Q332 460 313 432T256 388T166 371Q115
371 79 398Z" />
<glyph unicode="&#xb4;" glyph-name="acute" horiz-adv-x="237" d="M30 583L104 741Q109 753 121 761T147 769Q166 769 180 755T194 722Q194 699 177 687L46 571L30 583Z" />
<glyph unicode="&#xb5;" glyph-name="uni00B5" horiz-adv-x="653" d="M135 -292T115 -272T95 -211Q95 -142 97 -24T101 133V518H201V135Q201 84 222 55T287 26Q332 26 374 59T451 143V518H551V30L621 20V0H451V107Q414 53 364 22T256 -10Q175 -10 136 32Q144 -84
173 -149T255 -242Q244 -264 222 -278T170 -292Q135 -292 115 -272Z" />
<glyph unicode="&#xb6;" glyph-name="paragraph" horiz-adv-x="551" d="M230 426Q168 426 124 451T57 518T34 613Q34 665 57 707T124 775T229 800H506V778L414 764V-112H372V767H273V-112H230V426Z" />
<glyph unicode="&#xb7;" glyph-name="middot" horiz-adv-x="246" d="M97 234T78 253T58 299Q58 325 77 344T123 364Q149 364 168 345T188 299Q188 273 169 254T123 234Q97 234 78 253Z" />
<glyph unicode="&#xb8;" glyph-name="cedilla" horiz-adv-x="351" d="M105 -232T74 -223L80 -201Q92 -204 108 -204Q141 -204 164 -188T187 -137Q187 -110 169 -92T115 -69L136 9H163L150 -44Q207 -46 239 -68T272 -136Q272 -184 236 -208T146 -232Q105 -232 74 -223Z" />
<glyph unicode="&#xb9;" glyph-name="uni00B9" horiz-adv-x="254" d="M53 375V396L95 401V774L53 779V800H167V401L209 396V375H53Z" />
<glyph unicode="&#xba;" glyph-name="ordmasculine" horiz-adv-x="505" d="M192 371T143 398T66 474T38 587Q38 652 66 701T143 778T252 805Q312 805 361 778T438 702T467 587Q467 523 439 474T361 398T252 371Q192 371 143 398ZM312 398T340 438T368 547V628Q368
697 340 737T252 777Q192 777 164 737T136 628V547Q136 478 164 438T252 398Q312 398 340 438Z" />
<glyph unicode="&#xbb;" glyph-name="guillemotright" horiz-adv-x="370" d="M150 70L141 79L235 270L141 460L150 470L323 279V261L150 70ZM64 145L55 153L99 270L55 386L64 395L175 277V263L64 145Z" />
<glyph unicode="&#xbc;" glyph-name="onequarter" horiz-adv-x="751" d="M53 375V396L95 401V774L53 779V800H167V401L209 396V375H53ZM532 0V21L581 29V103H403V114L627 425H652V137H700V103H652V29L700 21V0H532ZM450 137H581V318L450 137ZM132 0L532 800H583L184
0H132Z" />
<glyph unicode="&#xbd;" glyph-name="onehalf" horiz-adv-x="842" d="M53 375V396L95 401V774L53 779V800H167V401L209 396V375H53ZM503 40L619 153Q701 233 701 319Q701 358 682 380T632 403Q606 403 588 391T570 357Q570 342 577 333T601 315Q601 294 589 283T557
271Q539 271 525 285T511 323Q511 372 546 398T636 425Q706 425 742 395T778 315Q778 270 753 234T680 161L560 64H726L754 143H777V0H503V40ZM133 0L533 800H584L185 0H133Z" />
<glyph unicode="&#xbe;" glyph-name="threequarters" horiz-adv-x="902" d="M143 375V396L192 404V478H14V489L238 800H263V512H311V478H263V404L311 396V375H143ZM61 512H192V693L61 512ZM644 -11T608 16T572 87Q572 110 585 123T616 137Q633 137 645 126T658
95Q643 87 636 77T628 55Q628 11 695 11Q729 11 752 36T776 110Q776 164 750 190T662 220V241Q716 244 737 266T759 333Q759 365 743 383T696 401Q670 401 658 391T646 364Q646 351 653 343T675 329Q675 309 663 298T634 287Q616 287 604 300T591 337Q591 380 624
401T706 423Q766 423 800 400T834 330Q834 290 804 264T714 231V229Q861 220 861 110Q861 78 842 50T785 6T695 -11Q644 -11 608 16ZM239 0L639 800H690L291 0H239Z" />
<glyph unicode="&#xbf;" glyph-name="questiondown" horiz-adv-x="521" d="M313 527T330 510T347 467Q347 442 330 426T288 409Q263 409 246 425T229 467Q229 492 246 509T288 527Q313 527 330 510ZM299 277T280 222T223 97Q190 34 175 -7T160 -99Q160 -201 189
-241T270 -281Q319 -281 356 -255T393 -188Q393 -136 343 -112Q343 -77 363 -59T413 -40Q443 -40 465 -62T488 -124Q488 -176 456 -217T370 -280T254 -303Q146 -303 92 -258T38 -106Q38 -63 53 -27T91 39T153 109Q195 155 219 186T260 260T277 352H299Q299 277
280 222Z" />
<glyph unicode="&#xc0;" glyph-name="Agrave" horiz-adv-x="719" d="M-28 0V21L70 61L359 820H375L648 36L740 21V0H446V21L528 34L443 271H177L96 61L186 21V0H-28ZM185 292H436L316 644L185 292ZM284 901Q269 906 259 918T249 946Q249 964 263 978T296 993Q315
993 329 981L460 867L451 850L284 901Z" />
<glyph unicode="&#xc1;" glyph-name="Aacute" horiz-adv-x="719" d="M-28 0V21L70 61L359 820H375L648 36L740 21V0H446V21L528 34L443 271H177L96 61L186 21V0H-28ZM185 292H436L316 644L185 292ZM276 867L408 981Q422 993 440 993Q460 993 473 979T487 946Q487
931 478 919T453 901L286 850L276 867Z" />
<glyph unicode="&#xc2;" glyph-name="Acircumflex" horiz-adv-x="719" d="M-28 0V21L70 61L359 820H375L648 36L740 21V0H446V21L528 34L443 271H177L96 61L186 21V0H-28ZM185 292H436L316 644L185 292ZM219 827L210 842L338 964H397L524 842L515 827L367 896L219 827Z" />
<glyph unicode="&#xc3;" glyph-name="Atilde" horiz-adv-x="719" d="M-28 0V21L70 61L359 820H375L648 36L740 21V0H446V21L528 34L443 271H177L96 61L186 21V0H-28ZM185 292H436L316 644L185 292ZM398 858T379 868T336 897Q314 914 300 921T269 929Q231 929 213
880L185 884Q185 890 197 917T237 969T310 993Q335 993 354 983T398 954Q418 938 432 930T464 922Q504 922 520 971L548 967Q548 961 536 934T496 882T423 858Q398 858 379 868Z" />
<glyph unicode="&#xc4;" glyph-name="Adieresis" horiz-adv-x="719" d="M-28 0V21L70 61L359 820H375L648 36L740 21V0H446V21L528 34L443 271H177L96 61L186 21V0H-28ZM185 292H436L316 644L185 292ZM252 858T235 875T217 917Q217 942 234 959T277 976Q302 976
319 959T336 917Q336 892 319 875T277 858Q252 858 235 875ZM438 858T421 875T403 917Q403 942 420 959T463 976Q488 976 504 959T521 917Q521 892 505 875T463 858Q438 858 421 875Z" />
<glyph unicode="&#xc5;" glyph-name="Aring" horiz-adv-x="719" d="M-28 0V21L70 61L347 790L321 795L301 816L274 844V922L329 978H408L463 922V844L435 816L414 794L385 789L648 36L740 21V0H446V21L528 34L443 271H177L96 61L186 21V0H-28ZM343 821H393L431
858V908L393 945H343L306 908V858L343 821ZM185 292H436L316 644L185 292Z" />
<glyph unicode="&#xc6;" glyph-name="AE" horiz-adv-x="1114" d="M-40 0V21L55 60L517 764L432 778V800H1035V571H1008L931 775H650V415H770L829 560H856V244H829L770 391H650V24H949L1031 244H1058V0H541V309H249L85 60L174 21V0H-40ZM263 330H541V751L263 330Z" />
<glyph unicode="&#xc7;" glyph-name="Ccedilla" horiz-adv-x="746" d="M358 -242T326 -233L332 -211Q344 -214 360 -214Q393 -214 416 -198T439 -147Q439 -120 421 -102T367 -79L383 -18Q284 -10 210 44T95 191T55 400Q55 524 100 619T229 767T422 820Q465 820
509 805T590 763L657 820H678V572H657L595 727Q560 759 514 778T422 797Q352 797 299 761T215 656T185 492V309Q185 214 214 145T295 40T417 3Q468 3 519 25T604 86L662 247H683V-10H662L590 41Q554 12 508 -4T417 -20H410L402 -54Q459 -56 491 -78T524 -146Q524
-194 488 -218T398 -242Q358 -242 326 -233Z" />
<glyph unicode="&#xc8;" glyph-name="Egrave" horiz-adv-x="721" d="M40 0V21L132 36V764L40 778V800H642V571H615L538 775H242V415H372L431 560H457V244H431L371 391H242V24H556L638 244H664V0H40ZM278 901Q263 906 253 918T243 946Q243 964 257 978T290 993Q309
993 323 981L454 867L445 850L278 901Z" />
<glyph unicode="&#xc9;" glyph-name="Eacute" horiz-adv-x="721" d="M40 0V21L132 36V764L40 778V800H642V571H615L538 775H242V415H372L431 560H457V244H431L371 391H242V24H556L638 244H664V0H40ZM270 867L402 981Q416 993 434 993Q454 993 467 979T481 946Q481
931 472 919T447 901L280 850L270 867Z" />
<glyph unicode="&#xca;" glyph-name="Ecircumflex" horiz-adv-x="721" d="M40 0V21L132 36V764L40 778V800H642V571H615L538 775H242V415H372L431 560H457V244H431L371 391H242V24H556L638 244H664V0H40ZM213 827L204 842L332 964H391L518 842L509 827L361 896L213 827Z" />
<glyph unicode="&#xcb;" glyph-name="Edieresis" horiz-adv-x="721" d="M40 0V21L132 36V764L40 778V800H642V571H615L538 775H242V415H372L431 560H457V244H431L371 391H242V24H556L638 244H664V0H40ZM246 858T229 875T211 917Q211 942 228 959T271 976Q296 976
313 959T330 917Q330 892 313 875T271 858Q246 858 229 875ZM432 858T415 875T397 917Q397 942 414 959T457 976Q482 976 498 959T515 917Q515 892 499 875T457 858Q432 858 415 875Z" />
<glyph unicode="&#xcc;" glyph-name="Igrave" horiz-adv-x="374" d="M40 0V21L132 36V764L40 778V800H334V778L242 764V36L334 21V0H40ZM102 901Q87 906 77 918T67 946Q67 964 81 978T114 993Q133 993 147 981L278 867L269 850L102 901Z" />
<glyph unicode="&#xcd;" glyph-name="Iacute" horiz-adv-x="374" d="M40 0V21L132 36V764L40 778V800H334V778L242 764V36L334 21V0H40ZM94 867L226 981Q240 993 258 993Q278 993 291 979T305 946Q305 931 296 919T271 901L104 850L94 867Z" />
<glyph unicode="&#xce;" glyph-name="Icircumflex" horiz-adv-x="374" d="M40 0V21L132 36V764L40 778V800H334V778L242 764V36L334 21V0H40ZM37 827L28 842L156 964H215L342 842L333 827L185 896L37 827Z" />
<glyph unicode="&#xcf;" glyph-name="Idieresis" horiz-adv-x="374" d="M40 0V21L132 36V764L40 778V800H334V778L242 764V36L334 21V0H40ZM70 858T53 875T35 917Q35 942 52 959T95 976Q120 976 137 959T154 917Q154 892 137 875T95 858Q70 858 53 875ZM256 858T239
875T221 917Q221 942 238 959T281 976Q306 976 322 959T339 917Q339 892 323 875T281 858Q256 858 239 875Z" />
<glyph unicode="&#xd0;" glyph-name="Eth" horiz-adv-x="859" d="M40 21L132 36V375H56V408H132V764L40 778V800H423Q533 800 618 751T752 611T800 400Q800 280 752 190T618 50T423 0H40V21ZM427 24Q499 25 554 59T641 161T673 323V477Q673 573 641 640T553 741T423
775H242V408H426V375H242V24H427Z" />
<glyph unicode="&#xd1;" glyph-name="Ntilde" horiz-adv-x="812" d="M43 0V21L136 61V739L43 778V800H229L660 196V739L567 778V800H780V778L685 739V0H660L161 701V61L257 21V0H43ZM458 878T439 888T396 917Q374 934 360 941T329 949Q291 949 273 900L245 904Q245
910 257 937T297 989T370 1013Q395 1013 414 1003T458 974Q478 958 492 950T524 942Q564 942 580 991L608 987Q608 981 596 954T556 902T483 878Q458 878 439 888Z" />
<glyph unicode="&#xd2;" glyph-name="Ograve" horiz-adv-x="862" d="M322 -20T236 33T102 181T54 400Q54 523 102 618T236 767T431 820Q540 820 626 767T760 619T808 400Q808 277 760 182T626 33T431 -20Q322 -20 236 33ZM503 3T560 41T651 151T684 323V477Q684
576 651 648T561 759T431 797Q358 797 301 759T211 649T178 477V323Q178 224 211 152T301 41T431 3Q503 3 560 41ZM348 901Q333 906 323 918T313 946Q313 964 327 978T360 993Q379 993 393 981L524 867L515 850L348 901Z" />
<glyph unicode="&#xd3;" glyph-name="Oacute" horiz-adv-x="862" d="M322 -20T236 33T102 181T54 400Q54 523 102 618T236 767T431 820Q540 820 626 767T760 619T808 400Q808 277 760 182T626 33T431 -20Q322 -20 236 33ZM503 3T560 41T651 151T684 323V477Q684
576 651 648T561 759T431 797Q358 797 301 759T211 649T178 477V323Q178 224 211 152T301 41T431 3Q503 3 560 41ZM340 867L472 981Q486 993 504 993Q524 993 537 979T551 946Q551 931 542 919T517 901L350 850L340 867Z" />
<glyph unicode="&#xd4;" glyph-name="Ocircumflex" horiz-adv-x="862" d="M322 -20T236 33T102 181T54 400Q54 523 102 618T236 767T431 820Q540 820 626 767T760 619T808 400Q808 277 760 182T626 33T431 -20Q322 -20 236 33ZM503 3T560 41T651 151T684 323V477Q684
576 651 648T561 759T431 797Q358 797 301 759T211 649T178 477V323Q178 224 211 152T301 41T431 3Q503 3 560 41ZM283 827L274 842L402 964H461L588 842L579 827L431 896L283 827Z" />
<glyph unicode="&#xd5;" glyph-name="Otilde" horiz-adv-x="862" d="M322 -20T236 33T102 181T54 400Q54 523 102 618T236 767T431 820Q540 820 626 767T760 619T808 400Q808 277 760 182T626 33T431 -20Q322 -20 236 33ZM503 3T560 41T651 151T684 323V477Q684
576 651 648T561 759T431 797Q358 797 301 759T211 649T178 477V323Q178 224 211 152T301 41T431 3Q503 3 560 41ZM462 858T443 868T400 897Q378 914 364 921T333 929Q295 929 277 880L249 884Q249 890 261 917T301 969T374 993Q399 993 418 983T462 954Q482 938
496 930T528 922Q568 922 584 971L612 967Q612 961 600 934T560 882T487 858Q462 858 443 868Z" />
<glyph unicode="&#xd6;" glyph-name="Odieresis" horiz-adv-x="862" d="M322 -20T236 33T102 181T54 400Q54 523 102 618T236 767T431 820Q540 820 626 767T760 619T808 400Q808 277 760 182T626 33T431 -20Q322 -20 236 33ZM503 3T560 41T651 151T684 323V477Q684
576 651 648T561 759T431 797Q358 797 301 759T211 649T178 477V323Q178 224 211 152T301 41T431 3Q503 3 560 41ZM316 858T299 875T281 917Q281 942 298 959T341 976Q366 976 383 959T400 917Q400 892 383 875T341 858Q316 858 299 875ZM502 858T485 875T467 917Q467
942 484 959T527 976Q552 976 568 959T585 917Q585 892 569 875T527 858Q502 858 485 875Z" />
<glyph unicode="&#xd7;" glyph-name="multiply" horiz-adv-x="495" d="M406 170L247 330L88 171L61 198L219 356L61 515L88 542L246 383L406 543L433 516L273 356L433 197L406 170Z" />
<glyph unicode="&#xd8;" glyph-name="Oslash" horiz-adv-x="862" d="M243 28Q154 80 104 177T54 400Q54 523 102 618T236 767T431 820Q514 820 588 787L604 822H645L621 769Q709 717 758 621T808 400Q808 277 760 182T626 33T431 -20Q348 -20 277 11L263 -22H221L243
28ZM569 753Q508 797 431 797Q358 797 301 759T211 649T178 477V323Q178 240 201 175T266 69L569 753ZM503 3T560 41T651 151T684 323V477Q684 558 662 621T598 727L295 44Q354 3 431 3Q503 3 560 41Z" />
<glyph unicode="&#xd9;" glyph-name="Ugrave" horiz-adv-x="809" d="M255 -20T187 45T119 219V764L27 778V800H321V778L229 764V219Q229 121 284 69T451 16Q663 16 663 219V739L570 778V800H783V778L687 739V219Q687 99 620 40T402 -20Q255 -20 187 45ZM322 901Q307
906 297 918T287 946Q287 964 301 978T334 993Q353 993 367 981L498 867L489 850L322 901Z" />
<glyph unicode="&#xda;" glyph-name="Uacute" horiz-adv-x="809" d="M255 -20T187 45T119 219V764L27 778V800H321V778L229 764V219Q229 121 284 69T451 16Q663 16 663 219V739L570 778V800H783V778L687 739V219Q687 99 620 40T402 -20Q255 -20 187 45ZM314 867L446
981Q460 993 478 993Q498 993 511 979T525 946Q525 931 516 919T491 901L324 850L314 867Z" />
<glyph unicode="&#xdb;" glyph-name="Ucircumflex" horiz-adv-x="809" d="M255 -20T187 45T119 219V764L27 778V800H321V778L229 764V219Q229 121 284 69T451 16Q663 16 663 219V739L570 778V800H783V778L687 739V219Q687 99 620 40T402 -20Q255 -20 187 45ZM257
827L248 842L376 964H435L562 842L553 827L405 896L257 827Z" />
<glyph unicode="&#xdc;" glyph-name="Udieresis" horiz-adv-x="809" d="M255 -20T187 45T119 219V764L27 778V800H321V778L229 764V219Q229 121 284 69T451 16Q663 16 663 219V739L570 778V800H783V778L687 739V219Q687 99 620 40T402 -20Q255 -20 187 45ZM290
858T273 875T255 917Q255 942 272 959T315 976Q340 976 357 959T374 917Q374 892 357 875T315 858Q290 858 273 875ZM476 858T459 875T441 917Q441 942 458 959T501 976Q526 976 542 959T559 917Q559 892 543 875T501 858Q476 858 459 875Z" />
<glyph unicode="&#xdd;" glyph-name="Yacute" horiz-adv-x="676" d="M312 866L444 980Q458 992 476 992Q496 992 509 978T523 945Q523 930 514 918T489 900L322 849L312 866ZM196 0V21L289 36V340L46 764L-33 778V800H268V778L175 764L385 401L578 730L458 778V800H682V778L605
729L397 373V36L490 21V0H196Z" />
<glyph unicode="&#xde;" glyph-name="Thorn" horiz-adv-x="707" d="M40 21L132 36V764L40 778V800H338V778L246 764V624H358Q523 624 600 572T678 403Q678 288 601 236T358 183H246V36L338 21V0H40V21ZM344 207Q550 207 550 388V418Q550 600 344 600H246V207H344Z" />
<glyph unicode="&#xdf;" glyph-name="germandbls" horiz-adv-x="648" d="M345 -10T298 14T251 84Q251 112 268 129T315 147Q333 147 348 136T370 106Q353 86 353 63Q353 37 376 23T438 9Q480 9 514 23T567 62T587 117Q587 147 574 164T539 191T478 211L388 236Q322
255 289 292T256 394Q256 446 283 474T357 525Q406 548 422 578T438 672Q438 736 410 769T327 802Q260 802 226 755T191 605V0H21V20L91 30V562Q91 692 149 756T327 820Q431 820 484 780T538 672Q538 632 522 606T479 564T400 523L367 507Q330 489 312 471T293
427Q293 392 321 374T399 343L501 317Q622 286 622 159Q622 84 579 37T438 -10Q345 -10 298 14Z" />
<glyph unicode="&#xe0;" glyph-name="agrave" horiz-adv-x="558" d="M128 -10T87 23T46 123Q46 217 125 256T308 296H375V373Q375 425 364 453T328 493T263 505Q216 505 193 487T170 437Q170 408 198 399Q198 374 179 355T134 336Q106 336 89 351T72 399Q72 457
130 492T275 527Q475 527 475 353V67Q475 45 484 34T512 22Q529 22 539 33T549 65H570Q570 30 548 10T485 -10Q439 -10 408 16T375 99Q351 48 302 19T192 -10Q128 -10 87 23ZM274 34T302 50T351 96T375 170V274H308Q226 274 186 238T145 135Q145 80 171 57T247
34Q274 34 302 50ZM138 687Q121 701 121 722Q121 741 135 755T168 769Q182 769 194 761T212 741L285 583L269 571L138 687Z" />
<glyph unicode="&#xe1;" glyph-name="aacute" horiz-adv-x="558" d="M128 -10T87 23T46 123Q46 217 125 256T308 296H375V373Q375 425 364 453T328 493T263 505Q216 505 193 487T170 437Q170 408 198 399Q198 374 179 355T134 336Q106 336 89 351T72 399Q72 457
130 492T275 527Q475 527 475 353V67Q475 45 484 34T512 22Q529 22 539 33T549 65H570Q570 30 548 10T485 -10Q439 -10 408 16T375 99Q351 48 302 19T192 -10Q128 -10 87 23ZM274 34T302 50T351 96T375 170V274H308Q226 274 186 238T145 135Q145 80 171 57T247
34Q274 34 302 50ZM230 583L304 741Q309 753 321 761T347 769Q366 769 380 755T394 722Q394 699 377 687L246 571L230 583Z" />
<glyph unicode="&#xe2;" glyph-name="acircumflex" horiz-adv-x="558" d="M128 -10T87 23T46 123Q46 217 125 256T308 296H375V373Q375 425 364 453T328 493T263 505Q216 505 193 487T170 437Q170 408 198 399Q198 374 179 355T134 336Q106 336 89 351T72 399Q72
457 130 492T275 527Q475 527 475 353V67Q475 45 484 34T512 22Q529 22 539 33T549 65H570Q570 30 548 10T485 -10Q439 -10 408 16T375 99Q351 48 302 19T192 -10Q128 -10 87 23ZM274 34T302 50T351 96T375 170V274H308Q226 274 186 238T145 135Q145 80 171 57T247
34Q274 34 302 50ZM157 589L136 604L256 759H295L415 604L394 589L275 683L157 589Z" />
<glyph unicode="&#xe3;" glyph-name="atilde" horiz-adv-x="558" d="M128 -10T87 23T46 123Q46 217 125 256T308 296H375V373Q375 425 364 453T328 493T263 505Q216 505 193 487T170 437Q170 408 198 399Q198 374 179 355T134 336Q106 336 89 351T72 399Q72 457
130 492T275 527Q475 527 475 353V67Q475 45 484 34T512 22Q529 22 539 33T549 65H570Q570 30 548 10T485 -10Q439 -10 408 16T375 99Q351 48 302 19T192 -10Q128 -10 87 23ZM274 34T302 50T351 96T375 170V274H308Q226 274 186 238T145 135Q145 80 171 57T247
34Q274 34 302 50ZM323 602T300 612T247 641Q221 657 204 665T170 673Q131 673 113 624L86 628Q86 634 98 661T138 713T211 737Q236 737 259 727T312 698Q338 682 355 674T389 666Q428 666 446 715L473 711Q473 705 461 678T421 626T348 602Q323 602 300 612Z"
/>
<glyph unicode="&#xe4;" glyph-name="adieresis" horiz-adv-x="558" d="M128 -10T87 23T46 123Q46 217 125 256T308 296H375V373Q375 425 364 453T328 493T263 505Q216 505 193 487T170 437Q170 408 198 399Q198 374 179 355T134 336Q106 336 89 351T72 399Q72
457 130 492T275 527Q475 527 475 353V67Q475 45 484 34T512 22Q529 22 539 33T549 65H570Q570 30 548 10T485 -10Q439 -10 408 16T375 99Q351 48 302 19T192 -10Q128 -10 87 23ZM274 34T302 50T351 96T375 170V274H308Q226 274 186 238T145 135Q145 80 171 57T247
34Q274 34 302 50ZM153 866T136 883T118 925Q118 950 135 967T178 984Q203 984 220 967T237 925Q237 900 220 883T178 866Q153 866 136 883ZM338 866T321 883T304 925Q304 950 321 967T363 984Q388 984 405 967T422 925Q422 900 405 883T363 866Q338 866 321 883Z"
/>
<glyph unicode="&#xe5;" glyph-name="aring" horiz-adv-x="558" d="M128 -10T87 23T46 123Q46 217 125 256T308 296H375V373Q375 425 364 453T328 493T263 505Q216 505 193 487T170 437Q170 408 198 399Q198 374 179 355T134 336Q106 336 89 351T72 399Q72 457
130 492T275 527Q475 527 475 353V67Q475 45 484 34T512 22Q529 22 539 33T549 65H570Q570 30 548 10T485 -10Q439 -10 408 16T375 99Q351 48 302 19T192 -10Q128 -10 87 23ZM274 34T302 50T351 96T375 170V274H308Q226 274 186 238T145 135Q145 80 171 57T247
34Q274 34 302 50ZM225 570T198 598T170 665Q170 704 197 732T264 760Q304 760 331 732T359 665Q359 626 332 598T264 570Q225 570 198 598ZM289 603T308 621T327 665Q327 690 308 708T264 727Q239 727 221 709T202 665Q202 640 220 622T264 603Q289 603 308 621Z"
/>
<glyph unicode="&#xe6;" glyph-name="ae" horiz-adv-x="878" d="M119 -10T79 24T39 123Q39 218 122 258T331 298H368V393Q368 450 342 477T266 505Q221 505 192 484T163 437Q163 408 191 399Q191 374 172 355T127 336Q101 336 83 354T65 399Q65 437 92 466T166
511T266 527Q398 527 443 461Q477 493 522 510T618 527Q681 527 731 499T809 422T838 308H470V209Q470 121 509 67T624 12Q693 12 746 51T811 152H834Q820 78 763 34T624 -10Q542 -10 477 29T383 138Q354 60 304 25T180 -10Q119 -10 79 24ZM729 333Q729 420 702
462T618 505Q551 505 514 459T471 333H729ZM264 37T296 57T348 113T368 191V273H331Q253 273 201 236T148 123Q148 83 170 60T230 37Q264 37 296 57Z" />
<glyph unicode="&#xe7;" glyph-name="ccedilla" horiz-adv-x="547" d="M264 -232T232 -223L238 -201Q250 -204 266 -204Q299 -204 322 -188T345 -137Q345 -110 327 -92T273 -69L289 -10Q220 -6 164 28T76 122T43 259Q43 342 79 403T175 495T302 527Q359 527 406
508T480 453T508 374Q508 341 491 324T446 306Q419 306 401 324T383 369Q398 379 404 391T410 421Q410 458 381 481T302 505Q230 505 192 454T153 309V209Q153 120 190 66T302 12Q370 12 420 50T483 152H506Q493 81 442 38T316 -9L308 -44Q365 -46 397 -68T430
-136Q430 -184 394 -208T304 -232Q264 -232 232 -223Z" />
<glyph unicode="&#xe8;" glyph-name="egrave" horiz-adv-x="559" d="M233 -10T173 23T78 118T43 259Q43 339 77 399T170 493T301 527Q364 527 414 499T492 422T521 308H153V209Q153 121 192 67T307 12Q376 12 429 51T494 152H517Q503 78 446 34T307 -10Q233 -10
173 23ZM411 333Q411 420 384 462T300 505Q233 505 196 458T154 333H411ZM170 687Q153 701 153 722Q153 741 167 755T200 769Q214 769 226 761T244 741L317 583L301 571L170 687Z" />
<glyph unicode="&#xe9;" glyph-name="eacute" horiz-adv-x="559" d="M233 -10T173 23T78 118T43 259Q43 339 77 399T170 493T301 527Q364 527 414 499T492 422T521 308H153V209Q153 121 192 67T307 12Q376 12 429 51T494 152H517Q503 78 446 34T307 -10Q233 -10
173 23ZM411 333Q411 420 384 462T300 505Q233 505 196 458T154 333H411ZM264 583L338 741Q343 753 355 761T381 769Q400 769 414 755T428 722Q428 699 411 687L280 571L264 583Z" />
<glyph unicode="&#xea;" glyph-name="ecircumflex" horiz-adv-x="559" d="M233 -10T173 23T78 118T43 259Q43 339 77 399T170 493T301 527Q364 527 414 499T492 422T521 308H153V209Q153 121 192 67T307 12Q376 12 429 51T494 152H517Q503 78 446 34T307 -10Q233
-10 173 23ZM411 333Q411 420 384 462T300 505Q233 505 196 458T154 333H411ZM185 589L164 604L284 759H323L443 604L422 589L303 683L185 589Z" />
<glyph unicode="&#xeb;" glyph-name="edieresis" horiz-adv-x="559" d="M233 -10T173 23T78 118T43 259Q43 339 77 399T170 493T301 527Q364 527 414 499T492 422T521 308H153V209Q153 121 192 67T307 12Q376 12 429 51T494 152H517Q503 78 446 34T307 -10Q233
-10 173 23ZM411 333Q411 420 384 462T300 505Q233 505 196 458T154 333H411ZM175 866T158 883T140 925Q140 950 157 967T200 984Q225 984 242 967T259 925Q259 900 242 883T200 866Q175 866 158 883ZM360 866T343 883T326 925Q326 950 343 967T385 984Q410 984
427 967T444 925Q444 900 427 883T385 866Q360 866 343 883Z" />
<glyph unicode="&#xec;" glyph-name="igrave" horiz-adv-x="288" d="M13 687Q-4 701 -4 722Q-4 741 10 755T43 769Q57 769 69 761T87 741L160 583L144 571L13 687ZM28 0V20L98 30V487L28 497V517H198V30L268 20V0H28Z" />
<glyph unicode="&#xed;" glyph-name="iacute" horiz-adv-x="288" d="M114 583L188 741Q193 753 205 761T231 769Q250 769 264 755T278 722Q278 699 261 687L130 571L114 583ZM28 0V20L98 30V487L28 497V517H198V30L268 20V0H28Z" />
<glyph unicode="&#xee;" glyph-name="icircumflex" horiz-adv-x="287" d="M278 589L257 604L377 759H416L536 604L515 589L396 683L278 589ZM28 0V20L98 30V487L28 497V517H198V30L268 20V0H28Z" />
<glyph unicode="&#xef;" glyph-name="idieresis" horiz-adv-x="287" d="M28 0V20L98 30V487L28 497V517H198V30L268 20V0H28ZM282 866T265 883T247 925Q247 950 264 967T307 984Q332 984 349 967T366 925Q366 900 349 883T307 866Q282 866 265 883ZM467 866T450
883T433 925Q433 950 450 967T492 984Q517 984 534 967T551 925Q551 900 534 883T492 866Q467 866 450 883Z" />
<glyph unicode="&#xf0;" glyph-name="eth" horiz-adv-x="627" d="M230 -10T171 23T78 118T43 259Q43 338 77 399T171 493T302 527Q341 527 379 518T449 493Q445 564 429 613T375 700L247 629L235 653L354 718Q296 762 194 788L199 810Q308 785 385 735L500 798L513
776L408 718Q562 603 562 372V259Q562 180 527 119T433 24T302 -10Q230 -10 171 23ZM376 12T414 66T452 209V393Q452 421 450 467Q419 484 380 494T302 505Q228 505 191 452T153 309V209Q153 120 190 66T302 12Q376 12 414 66Z" />
<glyph unicode="&#xf1;" glyph-name="ntilde" horiz-adv-x="634" d="M27 20L97 30V488L27 498V518H197V410Q234 464 284 495T392 527Q464 527 505 491T547 384V30L617 20V0H387V20L447 30V382Q447 434 426 462T361 491Q315 491 273 458T197 375V30L257 20V0H27V20ZM385
602T362 612T309 641Q283 657 266 665T232 673Q193 673 175 624L148 628Q148 634 160 661T200 713T273 737Q298 737 321 727T374 698Q400 682 417 674T451 666Q490 666 508 715L535 711Q535 705 523 678T483 626T410 602Q385 602 362 612Z" />
<glyph unicode="&#xf2;" glyph-name="ograve" horiz-adv-x="602" d="M230 -10T171 23T78 118T43 259Q43 338 77 399T171 493T302 527Q374 527 433 494T526 399T561 259Q561 180 527 119T433 24T302 -10Q230 -10 171 23ZM376 12T413 66T451 209V309Q451 398 414
451T302 505Q228 505 191 452T153 309V209Q153 120 190 66T302 12Q376 12 413 66ZM176 687Q159 701 159 722Q159 741 173 755T206 769Q220 769 232 761T250 741L323 583L307 571L176 687Z" />
<glyph unicode="&#xf3;" glyph-name="oacute" horiz-adv-x="602" d="M230 -10T171 23T78 118T43 259Q43 338 77 399T171 493T302 527Q374 527 433 494T526 399T561 259Q561 180 527 119T433 24T302 -10Q230 -10 171 23ZM376 12T413 66T451 209V309Q451 398 414
451T302 505Q228 505 191 452T153 309V209Q153 120 190 66T302 12Q376 12 413 66ZM288 583L362 741Q367 753 379 761T405 769Q424 769 438 755T452 722Q452 699 435 687L304 571L288 583Z" />
<glyph unicode="&#xf4;" glyph-name="ocircumflex" horiz-adv-x="602" d="M230 -10T171 23T78 118T43 259Q43 338 77 399T171 493T302 527Q374 527 433 494T526 399T561 259Q561 180 527 119T433 24T302 -10Q230 -10 171 23ZM376 12T413 66T451 209V309Q451 398
414 451T302 505Q228 505 191 452T153 309V209Q153 120 190 66T302 12Q376 12 413 66ZM184 589L163 604L283 759H322L442 604L421 589L302 683L184 589Z" />
<glyph unicode="&#xf5;" glyph-name="otilde" horiz-adv-x="602" d="M230 -10T171 23T78 118T43 259Q43 338 77 399T171 493T302 527Q374 527 433 494T526 399T561 259Q561 180 527 119T433 24T302 -10Q230 -10 171 23ZM376 12T413 66T451 209V309Q451 398 414
451T302 505Q228 505 191 452T153 309V209Q153 120 190 66T302 12Q376 12 413 66ZM354 602T331 612T278 641Q252 657 235 665T201 673Q162 673 144 624L117 628Q117 634 129 661T169 713T242 737Q267 737 290 727T343 698Q369 682 386 674T420 666Q459 666 477
715L504 711Q504 705 492 678T452 626T379 602Q354 602 331 612Z" />
<glyph unicode="&#xf6;" glyph-name="odieresis" horiz-adv-x="602" d="M230 -10T171 23T78 118T43 259Q43 338 77 399T171 493T302 527Q374 527 433 494T526 399T561 259Q561 180 527 119T433 24T302 -10Q230 -10 171 23ZM376 12T413 66T451 209V309Q451 398
414 451T302 505Q228 505 191 452T153 309V209Q153 120 190 66T302 12Q376 12 413 66ZM185 866T168 883T150 925Q150 950 167 967T210 984Q235 984 252 967T269 925Q269 900 252 883T210 866Q185 866 168 883ZM370 866T353 883T336 925Q336 950 353 967T395 984Q420
984 437 967T454 925Q454 900 437 883T395 866Q370 866 353 883Z" />
<glyph unicode="&#xf7;" glyph-name="divide" horiz-adv-x="599" d="M278 463T262 479T246 518Q246 540 262 555T300 571Q322 571 338 556T354 518Q354 496 338 480T300 463Q278 463 262 479ZM75 338V376H524V338H75ZM278 143T262 159T246 197Q246 219 262 234T300
250Q323 250 338 235T354 197Q354 175 338 159T300 143Q278 143 262 159Z" />
<glyph unicode="&#xf8;" glyph-name="oslash" horiz-adv-x="604" d="M173 22Q113 55 78 116T43 259Q43 338 77 399T171 493T302 527Q349 527 395 511L435 601H475L429 496Q490 463 525 402T561 259Q561 180 527 119T433 24T302 -10Q251 -10 206 7L170 -74H130L173
22ZM380 484Q346 505 302 505Q228 505 191 452T153 309V209Q153 115 193 62L380 484ZM376 12T413 66T451 209V309Q451 407 409 458L221 35Q255 12 302 12Q376 12 413 66Z" />
<glyph unicode="&#xf9;" glyph-name="ugrave" horiz-adv-x="627" d="M170 -10T129 26T87 133V488L17 498V518H187V135Q187 84 208 55T273 26Q319 26 361 56T437 132V488L367 498V518H537V30L607 20V0H437V96Q401 46 351 18T242 -10Q170 -10 129 26ZM177 687Q160
701 160 722Q160 741 174 755T207 769Q221 769 233 761T251 741L324 583L308 571L177 687Z" />
<glyph unicode="&#xfa;" glyph-name="uacute" horiz-adv-x="627" d="M170 -10T129 26T87 133V488L17 498V518H187V135Q187 84 208 55T273 26Q319 26 361 56T437 132V488L367 498V518H537V30L607 20V0H437V96Q401 46 351 18T242 -10Q170 -10 129 26ZM250 583L324
741Q329 753 341 761T367 769Q386 769 400 755T414 722Q414 699 397 687L266 571L250 583Z" />
<glyph unicode="&#xfb;" glyph-name="ucircumflex" horiz-adv-x="627" d="M170 -10T129 26T87 133V488L17 498V518H187V135Q187 84 208 55T273 26Q319 26 361 56T437 132V488L367 498V518H537V30L607 20V0H437V96Q401 46 351 18T242 -10Q170 -10 129 26ZM191 589L170
604L290 759H329L449 604L428 589L309 683L191 589Z" />
<glyph unicode="&#xfc;" glyph-name="udieresis" horiz-adv-x="627" d="M170 -10T129 26T87 133V488L17 498V518H187V135Q187 84 208 55T273 26Q319 26 361 56T437 132V488L367 498V518H537V30L607 20V0H437V96Q401 46 351 18T242 -10Q170 -10 129 26ZM194 866T177
883T159 925Q159 950 176 967T219 984Q244 984 261 967T278 925Q278 900 261 883T219 866Q194 866 177 883ZM379 866T362 883T345 925Q345 950 362 967T404 984Q429 984 446 967T463 925Q463 900 446 883T404 866Q379 866 362 883Z" />
<glyph unicode="&#xfd;" glyph-name="yacute" horiz-adv-x="536" d="M66 -292T34 -266T2 -196Q2 -166 19 -148T63 -129Q82 -129 97 -137T121 -161Q106 -182 106 -205Q106 -225 119 -238T152 -251Q176 -251 193 -235T225 -179L285 -7L53 487L-14 497V517H235V497L165
485L332 128L451 472L365 497V517H545V497L477 472L253 -179Q232 -238 203 -265T118 -292Q66 -292 34 -266ZM273 583L347 741Q352 753 364 761T390 769Q409 769 423 755T437 722Q437 699 420 687L289 571L273 583Z" />
<glyph unicode="&#xfe;" glyph-name="thorn" horiz-adv-x="626" d="M7 -263L77 -253V770L7 780V800H177V418Q202 469 244 498T343 527Q414 527 468 494T552 400T582 258Q582 177 552 117T468 23T343 -10Q286 -10 244 18T177 97V-253L271 -263V-283H7V-263ZM472
15T472 208V308Q472 502 333 502Q273 502 231 458T177 346V170Q188 103 230 59T333 15Q472 15 472 208Z" />
<glyph unicode="&#xff;" glyph-name="ydieresis" horiz-adv-x="536" d="M66 -292T34 -266T2 -196Q2 -166 19 -148T63 -129Q82 -129 97 -137T121 -161Q106 -182 106 -205Q106 -225 119 -238T152 -251Q176 -251 193 -235T225 -179L285 -7L53 487L-14 497V517H235V497L165
485L332 128L451 472L365 497V517H545V497L477 472L253 -179Q232 -238 203 -265T118 -292Q66 -292 34 -266ZM175 866T158 883T140 925Q140 950 157 967T200 984Q225 984 242 967T259 925Q259 900 242 883T200 866Q175 866 158 883ZM360 866T343 883T326 925Q326
950 343 967T385 984Q410 984 427 967T444 925Q444 900 427 883T385 866Q360 866 343 883Z" />
<glyph unicode="&#x2013;" glyph-name="endash" horiz-adv-x="640" d="M65 339V375H575V339H65Z" />
<glyph unicode="&#x2014;" glyph-name="emdash" horiz-adv-x="1140" d="M65 340V374H1075V340H65Z" />
<glyph unicode="&#x2018;" glyph-name="quoteleft" horiz-adv-x="224" d="M83 539T63 564T42 631Q42 687 72 732T166 809L177 793Q147 775 123 743T98 677Q98 668 103 663T118 657Q143 657 160 640T178 597Q178 572 161 556T118 539Q83 539 63 564Z" />
<glyph unicode="&#x2019;" glyph-name="quoteright" horiz-adv-x="223" d="M52 555Q82 573 106 605T131 671Q131 680 126 685T111 691Q86 691 69 708T51 751Q51 776 68 792T111 809Q146 809 166 784T187 717Q187 661 157 616T63 539L52 555Z" />
<glyph unicode="&#x201a;" glyph-name="quotesinglbase" horiz-adv-x="232" d="M51 -146Q81 -128 105 -96T130 -30Q130 -21 125 -16T110 -10Q85 -10 68 7T50 50Q50 75 67 91T110 108Q145 108 165 83T186 16Q186 -40 156 -85T62 -162L51 -146Z" />
<glyph unicode="&#x201c;" glyph-name="quotedblleft" horiz-adv-x="397" d="M83 539T63 564T42 631Q42 687 72 732T166 809L177 793Q147 775 123 743T98 677Q98 668 103 663T118 657Q143 657 160 640T178 597Q178 572 161 556T118 539Q83 539 63 564ZM256 539T236
564T215 631Q215 687 245 732T339 809L350 793Q320 775 296 743T271 677Q271 668 276 663T291 657Q316 657 333 640T351 597Q351 572 334 556T291 539Q256 539 236 564Z" />
<glyph unicode="&#x201d;" glyph-name="quotedblright" horiz-adv-x="396" d="M52 555Q82 573 106 605T131 671Q131 680 126 685T111 691Q86 691 69 708T51 751Q51 776 68 792T111 809Q146 809 166 784T187 717Q187 661 157 616T63 539L52 555ZM225 555Q255 573
279 605T304 671Q304 680 299 685T284 691Q259 691 242 708T224 751Q224 776 241 792T284 809Q319 809 339 784T360 717Q360 661 330 616T236 539L225 555Z" />
<glyph unicode="&#x201e;" glyph-name="quotedblbase" horiz-adv-x="405" d="M51 -146Q81 -128 105 -96T130 -30Q130 -21 125 -16T110 -10Q85 -10 68 7T50 50Q50 75 67 91T110 108Q145 108 165 83T186 16Q186 -40 156 -85T62 -162L51 -146ZM224 -146Q254 -128
278 -96T303 -30Q303 -21 298 -16T283 -10Q258 -10 241 7T223 50Q223 75 240 91T283 108Q318 108 338 83T359 16Q359 -40 329 -85T235 -162L224 -146Z" />
<glyph unicode="&#x2022;" glyph-name="bullet" horiz-adv-x="482" d="M204 266T177 293T150 357Q150 395 177 421T241 448Q279 448 305 422T332 357Q332 320 306 293T241 266Q204 266 177 293Z" />
<glyph unicode="&#x2039;" glyph-name="guilsinglleft" horiz-adv-x="283" d="M220 70L47 261V279L220 470L229 460L135 270L229 79L220 70Z" />
<glyph unicode="&#x203a;" glyph-name="guilsinglright" horiz-adv-x="283" d="M63 70L54 79L148 270L54 460L63 470L236 279V261L63 70Z" />
</font>
</defs>
</svg>
